<svg xmlns="http://www.w3.org/2000/svg" width="18.469" height="18.5" viewBox="0 0 18.469 18.5">
  <path id="copy-svgrepo-com" d="M19.2,5.444a.462.462,0,0,0-.012-.058v0a.446.446,0,0,0-.111-.208h0L15.247,1.346a.456.456,0,0,0-.2-.11h0a.4.4,0,0,0-.055-.012h0a.415.415,0,0,0-.056-.011H9.171a.457.457,0,0,0-.457.457h0V15.091a.457.457,0,0,0,.457.457h9.587a.457.457,0,0,0,.457-.457h0V5.5a.547.547,0,0,0-.012-.063v0ZM15.38,2.772l2.275,2.275H15.38ZM9.629,14.633V2.126h4.838V5.5a.457.457,0,0,0,.457.457H18.3v8.673Zm1.665,2.436a.457.457,0,0,0-.457.457h0V18.3H2.163V5.791H6.579a.457.457,0,1,0,0-.913H1.707a.457.457,0,0,0-.457.457h0V18.756a.457.457,0,0,0,.457.457h9.587a.457.457,0,0,0,.457-.457h0v-1.23a.457.457,0,0,0-.457-.457Z" transform="translate(-1 -0.963)" fill="#3f4549" stroke="#3f4549" stroke-width="0.5" opacity="0"/>
</svg>
