<svg id="Сгруппировать_16044" data-name="Сгруппировать 16044" xmlns="http://www.w3.org/2000/svg" width="88" height="102" viewBox="0 0 88 102">
  <path id="Контур_6935" data-name="Контур 6935" d="M10.115,0h67.77A10.107,10.107,0,0,1,88,10.1V91.9A10.107,10.107,0,0,1,77.885,102H10.115A10.107,10.107,0,0,1,0,91.9V10.1A10.107,10.107,0,0,1,10.115,0Z" transform="translate(0 0)" fill="#25bde5"/>
  <path id="Контур_6936" data-name="Контур 6936" d="M9.735,29.95A8.415,8.415,0,0,1,8.9,28.2L.325-7.708S-.1-9.1.325-9.663s1.7-.314,1.7-.314h3.8a3.14,3.14,0,0,1,1.911.314,2.682,2.682,0,0,1,.808,1.65l5.647,25.731L21-7.82a3.238,3.238,0,0,1,.99-1.843,3.32,3.32,0,0,1,2.086-.314h4.651a3.577,3.577,0,0,1,2.174.314,2.9,2.9,0,0,1,.891,1.843l6.527,26.006L44.107-7.82a3.828,3.828,0,0,1,.817-1.843,2.019,2.019,0,0,1,1.6-.314h3.622s1.5-.26,2,.314,0,1.981,0,1.981l-8.742,36a3.028,3.028,0,0,1-.873,1.633,2.985,2.985,0,0,1-1.8.393H35.464a1.075,1.075,0,0,1-.991-.393,4.919,4.919,0,0,1-.637-1.633L26.241.2,18.766,28.354a2.767,2.767,0,0,1-1.141,1.6,5.088,5.088,0,0,1-2.357.393H10.545S10.147,30.486,9.735,29.95Z" transform="translate(17.572 41.343)" fill="#fff"/>
</svg>
