<svg id="Сгруппировать_16044" data-name="Сгруппировать 16044" xmlns="http://www.w3.org/2000/svg" width="88" height="102" viewBox="0 0 88 102">
  <path id="Контур_6935" data-name="Контур 6935" d="M10.115,0h67.77A10.107,10.107,0,0,1,88,10.1V91.9A10.107,10.107,0,0,1,77.885,102H10.115A10.107,10.107,0,0,1,0,91.9V10.1A10.107,10.107,0,0,1,10.115,0Z" transform="translate(0 0)" fill="#2fb797"/>
  <path id="Path_1137" data-name="Path 1137" d="M-1.543,30.877q-3.178,0-1.339-2.715L9.438,10.3-1.428-5.487Q-3.291-8.2-.09-8.2H6.947a2.749,2.749,0,0,1,2.53,1.491L15.245,3.336,21-6.716a2.749,2.749,0,0,1,2.539-1.472h7.032q3.239,0,1.339,2.715L20.976,10.3,33.391,28.161q1.906,2.715-1.339,2.715H25a2.8,2.8,0,0,1-2.53-1.486L15.245,17.257,8.023,29.39a2.8,2.8,0,0,1-2.53,1.486Z" transform="translate(28.842 38.5)" fill="#fff"/>
</svg>
