<svg id="Сгруппировать_16035" data-name="Сгруппировать 16035" xmlns="http://www.w3.org/2000/svg" width="37.59" height="31.756" viewBox="0 0 37.59 31.756">
  <path id="Контур_6933" data-name="Контур 6933" d="M3.065-.627S10.21-.779,11.3-.578s2.463,1.667,3.827,2.434,1.784.35,6.053.5H34.444a3.065,3.065,0,0,1,3.065,3.065V28.009a3.065,3.065,0,0,1-3.065,3.065H3.065A3.065,3.065,0,0,1,0,28.009V2.438A3.065,3.065,0,0,1,3.065-.627Z" transform="translate(0.081 0.682)" fill="#fdb23a" opacity="0.59"/>
  <rect id="Прямоугольник_4759" data-name="Прямоугольник 4759" width="37.59" height="26.055" rx="4" transform="translate(0 5.702)" fill="#fdab3c"/>
  <rect id="Прямоугольник_4760" data-name="Прямоугольник 4760" width="37.59" height="0.645" rx="0.323" transform="translate(0 26.642)" fill="#ffbc60"/>
  <rect id="Прямоугольник_4761" data-name="Прямоугольник 4761" width="37.59" height="0.645" rx="0.323" transform="translate(0 28.014)" fill="#ffbc60"/>
  <path id="Контур_8854" data-name="Контур 8854" d="M-8.521-.124q-.075-.217-.2-.552T-8.986-1.4q-.143-.389-.3-.8l-.3-.778q-.143-.367-.266-.656t-.2-.444q-.083,1.068-.135,2.313t-.09,2.512H-11q.03-.815.068-1.643t.086-1.629q.049-.8.105-1.561t.124-1.439h.638q.2.4.435.941t.465,1.136q.233.593.45,1.186l.4,1.082.4-1.082q.218-.593.45-1.186t.465-1.136q.233-.543.435-.941h.638q.255,3.032.383,6.273h-.713q-.038-1.267-.09-2.512T-6.4-4.079q-.075.154-.2.444t-.266.656l-.3.778q-.161.412-.3.8t-.266.724q-.124.335-.2.552Zm4.2.869V-5.527h3.135v.751H-3.593v1.892h2.138v.742H-3.593V.745ZM.914.121q1.14,0,1.14-.941a1.1,1.1,0,0,0-.1-.493,1.125,1.125,0,0,0-.274-.353,1.83,1.83,0,0,0-.394-.258q-.221-.109-.469-.217a4.357,4.357,0,0,1-.54-.267,1.9,1.9,0,0,1-.443-.353,1.514,1.514,0,0,1-.3-.484,1.882,1.882,0,0,1-.109-.679A1.73,1.73,0,0,1-.106-5.21a1.741,1.741,0,0,1,1.283-.462,2.838,2.838,0,0,1,.859.122,1.785,1.785,0,0,1,.566.267l-.233.715A1.874,1.874,0,0,0,1.9-4.8a2.115,2.115,0,0,0-.724-.113,1.345,1.345,0,0,0-.39.054.921.921,0,0,0-.315.163.767.767,0,0,0-.214.276.917.917,0,0,0-.079.394A.98.98,0,0,0,.262-3.6a.941.941,0,0,0,.233.3,1.94,1.94,0,0,0,.349.24q.2.109.439.217.338.163.619.326a2.032,2.032,0,0,1,.488.389,1.588,1.588,0,0,1,.319.539,2.24,2.24,0,0,1,.113.756,1.607,1.607,0,0,1-.5,1.267A2.046,2.046,0,0,1,.914.881,3,3,0,0,1,.348.831,3.6,3.6,0,0,1-.113.714,2.376,2.376,0,0,1-.462.569Q-.608.492-.691.438l.218-.724a3.006,3.006,0,0,0,.525.262A2.273,2.273,0,0,0,.914.121Zm2.28,1.5a1.178,1.178,0,0,0,.214.086.87.87,0,0,0,.259.041.9.9,0,0,0,.645-.222,1.94,1.94,0,0,0,.42-.72q-.473-1.086-.881-2.3a23.031,23.031,0,0,1-.679-2.466h.75q.083.407.2.878t.259.968q.143.5.308,1t.345.959q.285-.95.5-1.883t.4-1.919h.72q-.27,1.331-.6,2.557T5.332.89a5.228,5.228,0,0,1-.311.7,2.039,2.039,0,0,1-.356.484,1.245,1.245,0,0,1-.439.281,1.576,1.576,0,0,1-.551.091A1.157,1.157,0,0,1,3.5,2.434,1.684,1.684,0,0,1,3.326,2.4a1.543,1.543,0,0,1-.158-.05.694.694,0,0,1-.1-.045ZM8.287.139A1.171,1.171,0,0,0,8.921,0a.482.482,0,0,0,.206-.434.623.623,0,0,0-.2-.489,3.051,3.051,0,0,0-.668-.407q-.225-.109-.431-.222a1.5,1.5,0,0,1-.356-.267,1.162,1.162,0,0,1-.24-.371,1.4,1.4,0,0,1-.09-.534,1.308,1.308,0,0,1,.383-.991,1.444,1.444,0,0,1,1.043-.367,2.426,2.426,0,0,1,.33.023Q9.06-4.034,9.2-4a2.563,2.563,0,0,1,.251.068q.109.036.169.063l-.128.724A1.575,1.575,0,0,0,9.142-3.3a1.9,1.9,0,0,0-.578-.077.92.92,0,0,0-.51.14.485.485,0,0,0-.218.439.7.7,0,0,0,.049.272.612.612,0,0,0,.15.213,1.206,1.206,0,0,0,.251.177q.15.081.36.172.278.127.5.249a1.548,1.548,0,0,1,.371.285,1.109,1.109,0,0,1,.236.394,1.692,1.692,0,0,1,.083.566,1.212,1.212,0,0,1-.4.987A1.739,1.739,0,0,1,8.287.854a2.5,2.5,0,0,1-.81-.1,3.756,3.756,0,0,1-.4-.158l.128-.724q.12.054.383.163A1.856,1.856,0,0,0,8.287.139Z" transform="translate(19.419 19.191)" fill="#d98d26"/>
</svg>
