<svg xmlns="http://www.w3.org/2000/svg" width="30" height="34.828" viewBox="0 0 30 34.828">
    <g id="Сгруппировать_17732" transform="translate(-256 -331)">
        <path id="Контур_6935"
              d="M3.448,0h23.1A3.448,3.448,0,0,1,30,3.448V31.379a3.448,3.448,0,0,1-3.448,3.448H3.448A3.448,3.448,0,0,1,0,31.379V3.448A3.448,3.448,0,0,1,3.448,0Z"
              transform="translate(256 331)" fill="#2fb797"/>
        <path id="Path_1137"
              d="M-2.845,5.59q-1.121,0-.472-.958L1.03-1.674-2.8-7.244q-.657-.958.472-.958H.151a.97.97,0,0,1,.893.526L3.08-4.13,5.113-7.678a.97.97,0,0,1,.9-.52H8.491q1.143,0,.472.958L5.1-1.674,9.485,4.631q.673.958-.472.958H6.522a.989.989,0,0,1-.893-.525L3.08.783.531,5.065a.989.989,0,0,1-.893.525Z"
              transform="translate(268.176 349.548)" fill="#fff"/>
    </g>
</svg>
