<svg xmlns="http://www.w3.org/2000/svg" width="30" height="34.828" viewBox="0 0 30 34.828">
    <g id="Сгруппировать_17731" transform="translate(-256 -331)">
        <path id="Контур_6935"
              d="M3.448,0h23.1A3.448,3.448,0,0,1,30,3.448V31.379a3.448,3.448,0,0,1-3.448,3.448H3.448A3.448,3.448,0,0,1,0,31.379V3.448A3.448,3.448,0,0,1,3.448,0Z"
              transform="translate(256 331)" fill="#378fdb"/>
        <path id="Контур_6936"
              d="M3.413,3.617a2.873,2.873,0,0,1-.286-.6L.2-9.241s-.145-.474,0-.667.582-.107.582-.107h1.3a1.072,1.072,0,0,1,.652.107.916.916,0,0,1,.276.564L4.936-.559l2.322-8.72A1.105,1.105,0,0,1,7.6-9.909a1.134,1.134,0,0,1,.712-.107H9.9a1.221,1.221,0,0,1,.742.107.989.989,0,0,1,.3.629L13.172-.4l1.977-8.88a1.307,1.307,0,0,1,.279-.629.69.69,0,0,1,.546-.107h1.237s.511-.089.682.107,0,.676,0,.676L14.908,3.06a1.034,1.034,0,0,1-.3.557A1.019,1.019,0,0,1,14,3.751H12.2a.367.367,0,0,1-.338-.134,1.68,1.68,0,0,1-.217-.557l-2.593-9.6L6.5,3.072a.945.945,0,0,1-.39.545,1.737,1.737,0,0,1-.8.134H3.69S3.554,3.8,3.413,3.617Z"
              transform="translate(261.901 351.726)" fill="#fff"/>
    </g>
</svg>
